:SAMPLES-PER-SECOND 30
:FULLY-SPECIFIED
:DEGREES
334
root  -0.19666 31.6431 52.69 -157.898 27.4345 -177.544
RightUpLeg  -44.4516 -5.63517 6.09886
RightLeg  53.603 -8.60276 -10.1293
RightFoot  -11.9514 0.251751 2.78242
RightToes  -30.3325 -0.146217 -0.25427
Spine  17.4282 0.607112 -6.02299
Spine1  29.0615 3.8501 -10.2946
HEad  22.9728 12.769 0.124116
LeftShoulder1  0 -2.42657e-020 -4.95415e-022
LeftArm  -38.6411 -33.6133 -86.1612
LeftForeArm  10.9777 -22.2016 -4.11702
LeftHand  -0.0242632 0.494873 -5.90089
RightShoulder  0 2.42657e-020 1.07489e-018
RightArm  -12.3917 35.8918 99.5495
RightForeArm  46.3758 25.7314 4.85036
RightHand  -0.596395 26.8552 -2.12817
LeftUpLeg  -51.0139 -12.0251 9.63349
LeftLeg  41.3908 -12.3458 -9.39182
LeftFoot  -2.91238 0.0185887 0.731221
LeftToes  -14.9544 1.28829e-006 1.15665e-007
335
root  0.53984 31.3253 52.6303 -157.055 25.2703 -176.79
RightUpLeg  -47.8994 -5.05294 5.45605
RightLeg  53.4637 -5.27668 -6.26105
RightFoot  -12.0215 0.135061 1.6603
RightToes  -34.6936 -0.177541 -0.283228
Spine  18.6301 0.0526579 -6.30647
Spine1  31.1913 2.53726 -10.1657
HEad  21.2377 12.3982 1.42256
LeftShoulder1  0 -2.42657e-020 -4.95415e-022
LeftArm  -44.1699 -35.8663 -84.2604
LeftForeArm  7.5447 -20.6694 -3.80238
LeftHand  -0.0695699 1.23878 -6.76058
RightShoulder  0 2.42657e-020 1.07489e-018
RightArm  -12.5983 36.7674 99.0552
RightForeArm  46.2276 26.3889 4.99493
RightHand  -0.612532 27.0076 -2.18071
LeftUpLeg  -53.3809 -12.6896 11.8059
LeftLeg  45.1846 -12.1718 -10.5735
LeftFoot  -4.96345 0.0509612 1.17576
LeftToes  -17.4697 1.28829e-006 1.15665e-007
336
root  1.33949 30.9632 52.5212 -156.617 23.9108 -175.538
RightUpLeg  -50.9506 -3.40027 4.19984
RightLeg  54.1082 -2.82491 -3.47164
RightFoot  -11.9462 0.0519947 0.874537
RightToes  -39.3723 -0.213488 -0.311549
Spine  19.8642 -0.168517 -6.57379
Spine1  33.4137 1.7914 -9.92996
HEad  19.0662 12.4599 2.20756
LeftShoulder1  0 -2.42657e-020 -4.95415e-022
LeftArm  -49.9407 -37.8514 -81.4918
LeftForeArm  6.58083 -19.2082 -3.51
LeftHand  -0.0900848 1.47727 -7.31445
RightShoulder  0 2.42657e-020 1.07489e-018
RightArm  -13.4337 37.3348 98.2621
RightForeArm  45.6493 27.0902 5.15165
RightHand  -0.714052 26.7033 -2.63847
LeftUpLeg  -55.2417 -14.0726 14.8649
LeftLeg  49.4583 -10.6088 -10.7187
LeftFoot  -7.65449 0.107061 1.60027
LeftToes  -19.1741 1.28829e-006 1.15665e-007
337
root  2.22593 30.552 52.413 -155.81 23.2179 -173.051
RightUpLeg  -53.7552 -0.741499 2.98463
RightLeg  54.5191 -2.43491 -3.04686
RightFoot  -11.1507 0.0365761 0.752286
RightToes  -40.2787 -0.220713 -0.316691
Spine  20.6684 0.0592662 -6.59481
Spine1  34.8752 1.89267 -9.61865
HEad  16.7849 12.8255 2.56034
LeftShoulder1  0 -2.42657e-020 -4.95415e-022
LeftArm  -55.9046 -38.6342 -77.9876
LeftForeArm  5.16956 -18.2008 -3.31085
LeftHand  -0.120855 1.58934 -9.02699
RightShoulder  0 2.42657e-020 1.07489e-018
RightArm  -14.387 37.1243 96.7888
RightForeArm  44.7306 27.9 5.33554
RightHand  -0.737573 26.4105 -2.77324
LeftUpLeg  -56.9184 -15.0229 18.9549
LeftLeg  53.9268 -8.47456 -10.0547
LeftFoot  -10.7397 0.172107 1.83083
LeftToes  -20.5512 1.28829e-006 1.15665e-007
338
root  3.09721 30.1254 52.2888 -154.824 23.4973 -171.061
RightUpLeg  -57.1724 1.09486 0.793316
RightLeg  54.5322 -2.68011 -3.3481
RightFoot  -9.51532 0.0396408 0.8539
RightToes  -40.306 -0.220932 -0.316844
Spine  20.8707 0.401194 -6.85123
Spine1  35.3629 2.25292 -10.0279
HEad  14.84 13.0528 2.52004
LeftShoulder1  0 -2.42657e-020 -4.95415e-022
LeftArm  -62.2519 -38.2645 -73.4687
LeftForeArm  2.76855 -17.2545 -3.12471
LeftHand  -0.105403 0.975753 -12.611
RightShoulder  0 2.42657e-020 1.07489e-018
RightArm  -15.6734 36.4984 95.7497
RightForeArm  44.7577 27.9661 5.35053
RightHand  -0.742988 26.6243 -2.76996
LeftUpLeg  -57.9217 -15.0954 22.3215
LeftLeg  57.6784 -6.68521 -9.11156
LeftFoot  -13.9632 0.235829 1.92559
LeftToes  -23.3994 1.28829e-006 1.15665e-007
339
root  3.98712 29.6987 52.0997 -154.361 23.7942 -169.75
RightUpLeg  -59.9579 1.6207 -2.10083
RightLeg  53.4223 -2.7773 -3.33132
RightFoot  -9.47903 0.0579297 1.07633
RightToes  -39.2558 -0.212566 -0.31088
Spine  20.9441 0.659479 -7.27094
Spine1  35.6789 2.50424 -10.8264
HEad  13.0314 13.0479 2.5129
LeftShoulder1  0 -2.42657e-020 -4.95415e-022
LeftArm  -67.3239 -37.384 -68.5231
LeftForeArm  2.79896 -16.4738 -2.97471
LeftHand  -0.000368756 -0.00423806 -14.8566
RightShoulder  0 2.42657e-020 1.07489e-018
RightArm  -17.0077 34.8262 94.7166
RightForeArm  45.1208 28.5001 5.472
RightHand  -0.850447 26.5795 -3.23014
LeftUpLeg  -58.1274 -14.5708 24.5285
LeftLeg  60.891 -6.07437 -9.33863
LeftFoot  -16.752 0.331257 2.2495
LeftToes  -25.4946 1.28829e-006 1.15665e-007
340
root  4.94617 29.2877 51.852 -154.248 23.7318 -168.876
RightUpLeg  -61.6187 1.08941 -4.99416
RightLeg  50.7405 -3.02837 -3.29657
RightFoot  -9.83728 0.0838819 1.35234
RightToes  -37.5286 -0.199047 -0.30074
Spine  20.8407 0.80331 -7.53144
Spine1  35.7976 2.46602 -11.3673
HEad  11.2155 12.1861 2.8048
LeftShoulder1  0 -2.42657e-020 -4.95415e-022
LeftArm  -71.6957 -35.6404 -64.3998
LeftForeArm  0.546097 -16.5413 -2.98505
LeftHand  0.353178 -2.02809 -20.1931
RightShoulder  0 2.42657e-020 1.07489e-018
RightArm  -18.9129 32.7653 93.3239
RightForeArm  44.985 29.055 5.60041
RightHand  -0.837199 26.764 -3.14875
LeftUpLeg  -57.5692 -13.4359 25.913
LeftLeg  63.3929 -6.05533 -10.2491
LeftFoot  -19.4818 0.496073 2.88912
LeftToes  -25.7869 1.28829e-006 1.15665e-007
